# xmcd
#
# Track frame offsets: 
#        150
#        11964
#        33840
#        56624
#        69913
#        96061
#        111327
#        125921
#        144490
#        162997
#        177165
#        187236
#        219965
#
# Disc length: 3124 seconds
#
# Revision: 1
# Processed by: cddbd v1.5.2PL0 Copyright (c) Steve Scherf et al.
# Submitted via: ExactAudioCopyFreeDBPlugin 1.0
#
DISCID=bc0c320d
DTITLE=Malia - Black Orchid
DYEAR=2012
DGENRE=Jazz
TTITLE0=My Baby Just Cares For Me
TTITLE1=Don't Explain
TTITLE2=Baltimore
TTITLE3=Feeling Good
TTITLE4=Four Women
TTITLE5=I love You Porgy
TTITLE6=If You Go Away
TTITLE7=I Put A Spell On You
TTITLE8=Keeper Of The Flame
TTITLE9=He Ain't Comin' Home No More
TTITLE10=Marriage Is For Old Folks
TTITLE11=Wild Is The Wind
TTITLE12=That's All I Want From You
EXTD=YEAR: 2012
EXTT0=
EXTT1=
EXTT2=
EXTT3=
EXTT4=
EXTT5=
EXTT6=
EXTT7=
EXTT8=
EXTT9=
EXTT10=
EXTT11=
EXTT12=
PLAYORDER=
